<svg xmlns="http://www.w3.org/2000/svg" width="1200" height="440" viewBox="0 0 1200 440" role="img" aria-labelledby="title desc">
<title id="title">Coralline Codex terminal usage companion</title>
<desc id="desc">Generated from themes/palettes.tsv by tools/render_assets.py.</desc>
<style>
text { font-family: ui-monospace, SFMono-Regular, Menlo, Consolas, "Liberation Mono", monospace; }
</style>
<rect width="1200" height="440" rx="28" fill="#101118"/>
<circle cx="84" cy="72" r="8" fill="#ff6b6b"/><circle cx="110" cy="72" r="8" fill="#ffd166"/><circle cx="136" cy="72" r="8" fill="#5faf5f"/>
<text x="80" y="138" fill="#ffffff" font-size="42" font-weight="800">Coralline Codex</text>
<text x="80" y="174" fill="#a8a8a8" font-size="17">Usage limits, session tokens, and a polished terminal companion.</text>
<rect x="64" y="214" width="1072" height="138" rx="18" fill="#1e1f2a" stroke="#343745" stroke-width="2"/>
<text x="90" y="250" fill="#777f98" font-size="13">COMPANION</text>
<rect x="90" y="268" width="264" height="34" rx="17" fill="#5faf5f"/><text x="105" y="290" fill="#ffffff" font-size="14" font-weight="700">7d [####-] 94% reset 6d18h</text>
<rect x="366" y="268" width="147" height="34" rx="17" fill="#8d6cab"/><text x="381" y="290" fill="#ffffff" font-size="14" font-weight="700">burn 7d 4d12h</text>
<rect x="525" y="268" width="291" height="34" rx="17" fill="#af5f5f"/><text x="540" y="290" fill="#ffffff" font-size="14" font-weight="700">tok 123.4k in:120.0k out:3.4k</text>
<text x="90" y="334" fill="#8d96af" font-size="13">native footer: model · context remaining · limits · used tokens</text>
<rect x="64" y="382" width="1072" height="1" fill="#2b2e3a"/>
<text x="80" y="414" fill="#7aa2f7" font-size="14" font-weight="700">macOS</text>
<text x="170" y="414" fill="#a8a8a8" font-size="14">full</text>
<text x="260" y="414" fill="#7aa2f7" font-size="14" font-weight="700">Windows WSL</text>
<text x="400" y="414" fill="#a8a8a8" font-size="14">full</text>
<text x="490" y="414" fill="#7aa2f7" font-size="14" font-weight="700">Windows PowerShell</text>
<text x="690" y="414" fill="#a8a8a8" font-size="14">native footer + usage</text>
<text x="1018" y="414" fill="#5faf5f" font-size="14" font-weight="700">v0.2</text>
</svg>
