<svg xmlns="http://www.w3.org/2000/svg" width="1200" height="568" viewBox="0 0 1200 568" role="img" aria-labelledby="title desc">
<title id="title">Coralline Codex theme gallery</title>
<desc id="desc">Generated from themes/palettes.tsv by tools/render_assets.py.</desc>
<style>
text { font-family: ui-monospace, SFMono-Regular, Menlo, Consolas, "Liberation Mono", monospace; }
</style>
<rect width="1200" height="568" rx="28" fill="#101118"/>
<text x="64" y="66" fill="#ffffff" font-size="30" font-weight="800">Nine bundled themes</text>
<text x="64" y="96" fill="#8d96af" font-size="15">Generated from the same palette data used by the renderer.</text>
<rect x="64" y="130" width="344" height="104" rx="14" fill="#1e1f2a" stroke="#343745"/>
<text x="82" y="159" fill="#ffffff" font-size="14" font-weight="700">claude-coral</text>
<path d="M 82 178 H 136 L 153 195 L 136 212 H 82 Z" fill="#5faf5f"/><text x="97" y="201" fill="#ffffff" font-size="14" font-weight="700">94%</text>
<path d="M 136 178 L 153 195 L 136 212 H 238 L 255 195 L 238 178 Z" fill="#af5f5f"/><text x="160" y="201" fill="#ffffff" font-size="14" font-weight="700">tok 12.4k</text>
<path d="M 238 178 L 255 195 L 238 212 H 300 L 317 195 L 300 178 Z" fill="#51a6c7"/><text x="262" y="201" fill="#ffffff" font-size="14" font-weight="700">main</text>
<rect x="440" y="130" width="344" height="104" rx="14" fill="#1e1e2e" stroke="#343745"/>
<text x="458" y="159" fill="#ffffff" font-size="14" font-weight="700">catppuccin-mocha</text>
<path d="M 458 178 H 512 L 529 195 L 512 212 H 458 Z" fill="#a6e3a1"/><text x="473" y="201" fill="#1e1e2e" font-size="14" font-weight="700">94%</text>
<path d="M 512 178 L 529 195 L 512 212 H 614 L 631 195 L 614 178 Z" fill="#cba6f7"/><text x="536" y="201" fill="#1e1e2e" font-size="14" font-weight="700">tok 12.4k</text>
<path d="M 614 178 L 631 195 L 614 212 H 676 L 693 195 L 676 178 Z" fill="#89b4fa"/><text x="638" y="201" fill="#1e1e2e" font-size="14" font-weight="700">main</text>
<rect x="816" y="130" width="344" height="104" rx="14" fill="#282a36" stroke="#343745"/>
<text x="834" y="159" fill="#ffffff" font-size="14" font-weight="700">dracula</text>
<path d="M 834 178 H 888 L 905 195 L 888 212 H 834 Z" fill="#50fa7b"/><text x="849" y="201" fill="#282a36" font-size="14" font-weight="700">94%</text>
<path d="M 888 178 L 905 195 L 888 212 H 990 L 1007 195 L 990 178 Z" fill="#bd93f9"/><text x="912" y="201" fill="#282a36" font-size="14" font-weight="700">tok 12.4k</text>
<path d="M 990 178 L 1007 195 L 990 212 H 1052 L 1069 195 L 1052 178 Z" fill="#8be9fd"/><text x="1014" y="201" fill="#282a36" font-size="14" font-weight="700">main</text>
<rect x="64" y="264" width="344" height="104" rx="14" fill="#282828" stroke="#343745"/>
<text x="82" y="293" fill="#ffffff" font-size="14" font-weight="700">gruvbox-dark</text>
<path d="M 82 312 H 136 L 153 329 L 136 346 H 82 Z" fill="#689d6a"/><text x="97" y="335" fill="#ebdbb2" font-size="14" font-weight="700">94%</text>
<path d="M 136 312 L 153 329 L 136 346 H 238 L 255 329 L 238 312 Z" fill="#b16286"/><text x="160" y="335" fill="#ebdbb2" font-size="14" font-weight="700">tok 12.4k</text>
<path d="M 238 312 L 255 329 L 238 346 H 300 L 317 329 L 300 312 Z" fill="#458588"/><text x="262" y="335" fill="#ebdbb2" font-size="14" font-weight="700">main</text>
<rect x="440" y="264" width="344" height="104" rx="14" fill="#131313" stroke="#343745"/>
<text x="458" y="293" fill="#ffffff" font-size="14" font-weight="700">lunar-pink</text>
<path d="M 458 312 H 512 L 529 329 L 512 346 H 458 Z" fill="#05a6a8"/><text x="473" y="335" fill="#131313" font-size="14" font-weight="700">94%</text>
<path d="M 512 312 L 529 329 L 512 346 H 614 L 631 329 L 614 312 Z" fill="#e621af"/><text x="536" y="335" fill="#131313" font-size="14" font-weight="700">tok 12.4k</text>
<path d="M 614 312 L 631 329 L 614 346 H 676 L 693 329 L 676 312 Z" fill="#df6cbe"/><text x="638" y="335" fill="#131313" font-size="14" font-weight="700">main</text>
<rect x="816" y="264" width="344" height="104" rx="14" fill="#1c1c1c" stroke="#343745"/>
<text x="834" y="293" fill="#ffffff" font-size="14" font-weight="700">mono</text>
<path d="M 834 312 H 888 L 905 329 L 888 346 H 834 Z" fill="#8a8a8a"/><text x="849" y="335" fill="#ffffff" font-size="14" font-weight="700">94%</text>
<path d="M 888 312 L 905 329 L 888 346 H 990 L 1007 329 L 990 312 Z" fill="#9e9e9e"/><text x="912" y="335" fill="#ffffff" font-size="14" font-weight="700">tok 12.4k</text>
<path d="M 990 312 L 1007 329 L 990 346 H 1052 L 1069 329 L 1052 312 Z" fill="#808080"/><text x="1014" y="335" fill="#ffffff" font-size="14" font-weight="700">main</text>
<rect x="64" y="398" width="344" height="104" rx="14" fill="#2e3440" stroke="#343745"/>
<text x="82" y="427" fill="#ffffff" font-size="14" font-weight="700">nord</text>
<path d="M 82 446 H 136 L 153 463 L 136 480 H 82 Z" fill="#a3be8c"/><text x="97" y="469" fill="#2e3440" font-size="14" font-weight="700">94%</text>
<path d="M 136 446 L 153 463 L 136 480 H 238 L 255 463 L 238 446 Z" fill="#b48ead"/><text x="160" y="469" fill="#2e3440" font-size="14" font-weight="700">tok 12.4k</text>
<path d="M 238 446 L 255 463 L 238 480 H 300 L 317 463 L 300 446 Z" fill="#88c0d0"/><text x="262" y="469" fill="#2e3440" font-size="14" font-weight="700">main</text>
<rect x="440" y="398" width="344" height="104" rx="14" fill="#352827" stroke="#343745"/>
<text x="458" y="427" fill="#ffffff" font-size="14" font-weight="700">reverie</text>
<path d="M 458 446 H 512 L 529 463 L 512 480 H 458 Z" fill="#a8c89e"/><text x="473" y="469" fill="#382842" font-size="14" font-weight="700">94%</text>
<path d="M 512 446 L 529 463 L 512 480 H 614 L 631 463 L 614 446 Z" fill="#f9a8bb"/><text x="536" y="469" fill="#382842" font-size="14" font-weight="700">tok 12.4k</text>
<path d="M 614 446 L 631 463 L 614 480 H 676 L 693 463 L 676 446 Z" fill="#7298c7"/><text x="638" y="469" fill="#382842" font-size="14" font-weight="700">main</text>
<rect x="816" y="398" width="344" height="104" rx="14" fill="#1a1b26" stroke="#343745"/>
<text x="834" y="427" fill="#ffffff" font-size="14" font-weight="700">tokyo-night</text>
<path d="M 834 446 H 888 L 905 463 L 888 480 H 834 Z" fill="#9ece6a"/><text x="849" y="469" fill="#1a1b26" font-size="14" font-weight="700">94%</text>
<path d="M 888 446 L 905 463 L 888 480 H 990 L 1007 463 L 990 446 Z" fill="#bb9af7"/><text x="912" y="469" fill="#1a1b26" font-size="14" font-weight="700">tok 12.4k</text>
<path d="M 990 446 L 1007 463 L 990 480 H 1052 L 1069 463 L 1052 446 Z" fill="#7aa2f7"/><text x="1014" y="469" fill="#1a1b26" font-size="14" font-weight="700">main</text>
</svg>
